<svg version="1.1" id="Layer_1" xmlns="http://www.w3.org/2000/svg" xmlns:xlink="http://www.w3.org/1999/xlink" x="0px" y="0px"
	 width="100%" viewBox="0 0 1254 1254" enable-background="new 0 0 1254 1254" xml:space="preserve">
<path fill="#000000" opacity="1.000000" stroke="none" 
	d="
M693.000000,1255.000000 
	C462.000000,1255.000000 231.500000,1255.000000 1.000000,1255.000000 
	C1.000000,837.000000 1.000000,419.000000 1.000000,1.000000 
	C419.000000,1.000000 837.000000,1.000000 1255.000000,1.000000 
	C1255.000000,419.000000 1255.000000,837.000000 1255.000000,1255.000000 
	C1067.833374,1255.000000 880.666687,1255.000000 693.000000,1255.000000 
M976.063232,977.063354 
	C976.063232,977.063354 976.063599,977.151245 976.585449,976.974670 
	C976.774170,976.670898 976.962830,976.367126 977.063538,976.062988 
	C977.063538,976.062988 977.064026,976.150940 977.586548,975.973938 
	C977.775146,975.669434 977.963745,975.364929 978.060608,975.060120 
	C978.060608,975.060120 978.061096,975.151855 978.585022,974.974792 
	C978.774109,974.669617 978.963257,974.364502 979.059265,974.058960 
	C979.059265,974.058960 979.059814,974.152039 979.584351,973.975220 
	C979.773682,973.669983 979.963013,973.364685 980.059021,973.058960 
	C980.059021,973.058960 980.059326,973.152283 980.582031,972.976685 
	C980.771179,972.673157 980.960388,972.369690 981.046997,971.999756 
	C981.046997,971.999756 981.130615,972.088501 981.752502,971.845825 
	C982.885803,970.241638 984.019104,968.637451 985.024841,967.030212 
	C985.024841,967.030212 985.022217,967.157776 985.563599,966.973633 
	C985.762329,966.659790 985.960999,966.345947 986.033630,966.031433 
	C986.033630,966.031433 986.033386,966.157532 986.572266,965.981201 
	C986.766968,965.669434 986.961731,965.357727 987.044678,965.045410 
	C987.044678,965.045410 987.044739,965.157104 987.574402,964.980774 
	C987.766418,964.674133 987.958435,964.367493 988.058350,964.060059 
	C988.058350,964.060059 988.058411,964.152100 988.580383,963.977722 
	C988.769531,963.675049 988.958679,963.372375 989.036560,962.995056 
	C989.036560,962.995056 989.132751,963.087646 989.749451,962.848572 
	C990.223328,961.903564 990.697205,960.958557 991.028992,960.015198 
	C991.028992,960.015198 991.031189,960.157227 991.567871,959.983887 
	C991.763000,959.674805 991.958069,959.365723 992.083313,959.037415 
	C992.083313,959.037415 992.112122,959.103943 992.699524,958.879028 
	C992.824585,958.275635 992.949646,957.672241 993.095703,956.888306 
	C993.095703,956.888306 992.915405,956.866028 993.414062,956.762024 
	C993.542053,956.472046 993.670105,956.182068 993.806458,956.095642 
	C993.806458,956.095642 994.010132,956.089050 994.559326,955.965271 
	C994.757874,955.658447 994.956360,955.351624 995.037781,955.042786 
	C995.037781,955.042786 995.036255,955.159912 995.566101,954.976501 
	C995.762024,954.669678 995.957947,954.362854 996.083252,954.032959 
	C996.083252,954.032959 996.113708,954.100708 996.748108,953.838623 
	C997.885193,951.903259 999.022217,949.967957 1000.054321,948.034912 
	C1000.054321,948.034912 1000.057251,948.139893 1000.702271,947.876526 
	C1001.847961,945.941528 1002.993652,944.006592 1004.070251,942.049866 
	C1004.070251,942.049866 1004.096680,942.117310 1004.771362,941.816589 
	C1005.487976,940.019287 1006.204651,938.221985 1006.886719,936.445557 
	C1006.886719,936.445557 1006.901672,936.483093 1007.563171,936.037659 
	C1011.093079,929.041443 1014.622925,922.045227 1018.081787,915.051392 
	C1018.081787,915.051392 1018.085266,915.122314 1018.721497,914.841431 
	C1019.423462,912.929810 1020.125427,911.018188 1021.005554,908.237854 
	C1021.365417,906.852661 1021.725281,905.467407 1022.779419,903.797302 
	C1024.463135,897.865051 1026.146851,891.932739 1027.964844,885.316833 
	C1028.037720,884.863098 1028.110474,884.409424 1028.020142,883.966248 
	C1028.020142,883.966248 1028.030273,884.129333 1028.752075,883.789185 
	C1029.506348,881.733582 1030.737549,879.721863 1030.931396,877.614685 
	C1031.718750,869.055481 1032.187744,860.466980 1033.238647,851.167969 
	C1033.494507,850.436584 1033.973877,849.705078 1033.973145,848.973999 
	C1033.958618,833.313477 1033.890137,817.653076 1033.986450,801.067444 
	C1033.927979,789.067078 1033.869507,777.066711 1033.946899,764.289307 
	C1033.901123,763.504578 1033.855347,762.719788 1033.970825,761.018372 
	C1033.924805,745.348328 1033.878784,729.678223 1033.984375,713.080688 
	C1033.933105,683.384644 1033.881836,653.688599 1033.986694,623.067688 
	C1033.928711,610.071411 1033.870728,597.075134 1033.945557,583.170410 
	C1033.900024,580.425232 1033.854492,577.680115 1033.970703,574.018250 
	C1033.925537,561.014893 1033.880371,548.011597 1033.987793,534.080872 
	C1033.993774,524.274170 1034.015991,514.467468 1034.002930,504.660736 
	C1033.950928,465.437927 1033.887939,426.215088 1033.988037,386.068054 
	C1033.993042,379.991150 1034.095093,373.912109 1033.961548,367.838257 
	C1033.896118,364.864166 1033.393188,361.899719 1033.034424,358.007202 
	C1032.717529,351.598114 1032.704224,345.153564 1031.960571,338.794403 
	C1031.567139,335.429688 1029.902954,332.213562 1028.975586,328.091248 
	C1028.202881,317.060272 1024.233765,306.969086 1019.761780,296.266541 
	C1018.148438,292.696625 1016.747803,289.010406 1014.873657,285.583099 
	C1011.787109,279.938782 1008.394287,274.462006 1005.108398,268.899872 
	C1005.108398,268.899872 1005.093506,268.877869 1005.026550,268.177185 
	C1003.708191,266.413269 1002.389832,264.649353 1001.054565,262.950165 
	C1001.054565,262.950165 1001.120422,262.938812 1001.017456,262.214630 
	C998.375122,258.772400 995.732727,255.330170 993.039307,251.967911 
	C993.039307,251.967911 993.119080,251.916489 993.024963,251.199615 
	C988.375427,246.089584 983.725891,240.979553 979.073303,235.961288 
	C979.073303,235.961288 979.165039,235.963562 978.965576,235.428543 
	C978.651062,235.230194 978.336548,235.031830 978.025085,234.957962 
	C978.025085,234.957962 978.149536,234.954529 978.028198,234.255920 
	C976.059998,232.476273 974.091736,230.696625 972.078552,228.992798 
	C972.078552,228.992798 972.155579,228.950043 971.968384,228.431152 
	C971.666992,228.236450 971.365601,228.041748 970.997559,227.986298 
	C970.997559,227.986298 971.065247,227.852112 970.821045,227.241745 
	C968.252930,225.135071 965.684875,223.028397 963.076782,220.996841 
	C963.076782,220.996841 963.150024,220.953415 962.954346,220.439026 
	C962.653503,220.244003 962.352661,220.048981 961.980347,219.939896 
	C961.980347,219.939896 962.070007,219.874207 961.807861,219.253799 
	C959.799316,217.601654 957.946472,215.698624 955.756287,214.339035 
	C943.746094,206.883682 932.211365,198.330490 919.433105,192.537155 
	C906.450684,186.651291 892.351318,183.005432 878.477905,179.387955 
	C869.318970,176.999756 859.697449,175.187744 850.279297,175.170807 
	C703.637573,174.907364 556.995239,174.956085 410.353149,175.065460 
	C404.899414,175.069534 399.446655,176.419647 393.107880,176.985565 
	C385.937439,178.241379 378.714752,179.262680 371.616852,180.844177 
	C367.594269,181.740463 363.776367,183.555542 360.008728,184.962845 
	C360.008728,184.962845 360.014587,184.820389 359.182007,184.984360 
	C354.747253,186.649002 350.312469,188.313660 346.015167,189.988007 
	C346.015167,189.988007 346.024994,189.850555 345.506134,190.030060 
	C345.331238,190.082916 345.156311,190.135757 344.348267,190.012711 
	C343.857147,190.319977 343.365997,190.627258 342.980743,190.938553 
	C342.980743,190.938553 342.984192,190.832687 342.205109,190.992188 
	C338.758148,192.641342 335.311188,194.290512 331.991669,195.947739 
	C331.991669,195.947739 331.999268,195.820282 331.353943,195.978149 
	C330.857025,196.300079 330.360107,196.622009 329.992920,196.951004 
	C329.992920,196.951004 329.999603,196.821228 329.356903,196.980286 
	C328.861206,197.299316 328.365479,197.618362 327.959595,197.938477 
	C327.959595,197.938477 327.959991,197.848679 327.204193,197.980438 
	C318.765472,203.293396 310.326752,208.606354 301.954224,213.946045 
	C301.954224,213.946045 301.932312,213.878098 301.213348,213.981354 
	C299.768341,215.292557 298.323334,216.603760 296.950409,217.950073 
	C296.950409,217.950073 296.915375,217.877945 296.206879,217.969376 
	C292.453156,221.260254 288.699432,224.551147 284.999237,227.980484 
	C284.999237,227.980484 284.933624,227.848099 284.421234,228.035660 
	C284.230103,228.335083 284.039001,228.634491 283.933655,228.934265 
	C283.933655,228.934265 283.933105,228.848511 283.419952,229.036530 
	C283.228546,229.336655 283.037140,229.636780 282.936646,229.937241 
	C282.936646,229.937241 282.936096,229.846344 282.422058,230.035187 
	C282.230072,230.335632 282.038055,230.636093 281.923767,230.978394 
	C281.923767,230.978394 281.879395,230.902100 281.186035,230.970764 
	C280.420654,231.944778 279.655304,232.918793 278.956299,233.911362 
	C278.956299,233.911362 278.941101,233.844147 278.423798,234.034286 
	C278.230530,234.336594 278.037262,234.638901 277.940796,235.020325 
	C277.940796,235.020325 277.862335,234.924240 277.161255,234.973709 
	C275.390656,237.311234 273.620026,239.648758 271.981873,241.986038 
	C271.981873,241.986038 271.981415,241.853577 271.267914,241.978439 
	C262.908630,250.176788 255.775360,259.269592 250.946533,269.969727 
	C250.946533,269.969727 250.945511,269.868927 250.290680,270.136566 
	C247.914520,274.755676 245.538376,279.374817 243.008667,284.491669 
	C242.953384,284.656219 242.898117,284.820801 242.962677,284.986053 
	C242.962677,284.986053 242.962967,284.866211 242.283569,285.127197 
	C240.469452,289.415192 238.655350,293.703156 236.960220,297.986603 
	C236.960220,297.986603 236.955307,297.867645 236.278122,298.172577 
	C234.130676,305.136139 231.983231,312.099670 229.985413,319.043427 
	C229.985413,319.043427 229.965790,318.893768 229.433502,319.039673 
	C229.340118,319.354919 229.246719,319.670135 229.017120,320.772705 
	C224.481201,331.748932 223.206055,343.531281 223.185501,355.035522 
	C222.897614,516.183167 223.027802,677.331604 222.968338,838.479797 
	C222.961929,855.828430 223.665878,873.029541 228.987595,889.722168 
	C230.619949,894.842224 232.245804,899.964355 233.967773,905.842468 
	C234.974762,908.515930 235.806015,911.273132 237.030045,913.843262 
	C238.855896,917.676941 240.958664,921.378845 242.951660,925.008240 
	C242.951660,925.008240 242.823029,925.000610 242.975189,925.649597 
	C243.299438,926.145691 243.623688,926.641724 243.955307,927.006042 
	C243.955307,927.006042 243.823593,926.999084 243.977371,927.646851 
	C244.298935,928.143799 244.620499,928.640747 244.944763,929.033264 
	C244.944763,929.033264 244.840240,929.031128 244.969223,929.791748 
	C246.954300,933.236389 248.939377,936.681091 250.927795,940.042175 
	C250.927795,940.042175 250.844193,940.039551 250.970642,940.703857 
	C251.628235,941.515686 252.285828,942.327576 252.945068,943.041809 
	C252.945068,943.041809 252.847382,943.040833 252.966690,943.762573 
	C254.288269,945.553101 255.609833,947.343567 256.936340,949.032837 
	C256.936340,949.032837 256.835175,949.028625 256.967621,949.685913 
	C257.612213,950.495911 258.256805,951.305908 258.985535,952.020264 
	C258.985535,952.020264 258.884857,952.098206 258.965179,952.811829 
	C260.942413,954.893982 262.919647,956.976196 265.155975,959.701111 
	C267.842865,962.940552 270.529755,966.179993 273.439636,969.770020 
	C273.833191,970.128113 274.226746,970.486206 275.190857,971.734314 
	C275.484680,971.928833 275.778534,972.123413 275.695801,972.459351 
	C275.695801,972.459351 275.456451,972.161438 275.456451,972.161438 
	C275.456451,972.161438 275.666779,971.851929 275.981079,972.485901 
	C276.723206,973.003784 277.465363,973.521729 278.326996,974.559814 
	C278.868744,974.957458 279.410461,975.355103 280.019135,976.431641 
	C281.599548,977.939514 283.179962,979.447327 284.998383,981.513245 
	C285.325226,981.731445 285.652069,981.949585 285.978485,982.025146 
	C285.978485,982.025146 285.835876,982.025940 286.023224,982.564575 
	C286.335693,982.763367 286.648163,982.962158 286.960999,983.038757 
	C286.960999,983.038757 286.838806,983.038879 287.026825,983.571411 
	C287.336914,983.767639 287.647003,983.963867 287.957489,984.042114 
	C287.957489,984.042114 287.839508,984.042236 288.026581,984.571533 
	C288.334686,984.766724 288.642792,984.961853 288.951385,985.048096 
	C288.951385,985.048096 288.842407,985.048279 289.027740,985.573853 
	C289.333496,985.767944 289.639252,985.962036 289.963989,986.086853 
	C289.963989,986.086853 289.897308,986.113525 290.147522,986.732788 
	C292.064575,988.192078 293.981628,989.651428 295.997559,991.000000 
	C295.997559,991.000000 295.893951,991.106995 296.143127,991.727112 
	C297.095978,992.208679 298.048798,992.690247 299.001160,993.014099 
	C299.001160,993.014099 298.843414,993.014893 299.019226,993.556396 
	C299.329803,993.756287 299.640411,993.956177 299.951080,994.086792 
	C299.951080,994.086792 299.882080,994.093384 300.147797,994.732239 
	C302.099426,995.856018 304.051056,996.979797 306.205444,998.102783 
	C306.205444,998.102783 306.206635,997.900024 306.083923,998.308777 
	C306.194000,998.643494 306.424622,998.790039 307.440735,999.056946 
	C312.934875,1002.395081 318.428986,1005.733215 324.167938,1009.732971 
	C327.112610,1011.211426 330.057251,1012.689880 332.997864,1014.038513 
	C332.997864,1014.038513 332.868103,1014.042908 333.154785,1014.723267 
	C338.432892,1016.870300 343.710968,1019.017334 348.987488,1021.044739 
	C348.987488,1021.044739 348.867798,1021.046631 349.178406,1021.736389 
	C360.021545,1024.760132 370.864655,1027.783936 382.682495,1031.012573 
	C386.317200,1031.297485 389.951904,1031.582520 394.052399,1032.593872 
	C396.409363,1033.075195 398.766083,1033.976074 401.123291,1033.977539 
	C508.759125,1034.040649 616.395020,1034.039062 724.030884,1034.011353 
	C764.349670,1034.000977 804.668396,1033.908081 845.897278,1034.016602 
	C850.347778,1033.356812 855.290039,1035.860352 859.859009,1031.993408 
	C860.055481,1031.922119 860.252014,1031.850952 861.291016,1031.853516 
	C868.254150,1031.236694 875.267456,1030.941895 882.159119,1029.866821 
	C885.592224,1029.331299 888.802429,1027.367065 892.903381,1026.020996 
	C903.267151,1021.908875 913.630981,1017.796692 924.511047,1013.761780 
	C924.854187,1013.557312 924.958862,1013.268799 924.809509,1013.077332 
	C924.809509,1013.077332 924.990540,1013.094849 925.738586,1013.005676 
	C927.537781,1012.024902 929.336975,1011.044128 931.013733,1010.054321 
	C931.013733,1010.054321 931.005127,1010.176880 931.653503,1010.034241 
	C932.147278,1009.711609 932.641052,1009.388977 933.041748,1009.063599 
	C933.041748,1009.063599 933.039734,1009.156677 933.765503,1009.034485 
	C935.887634,1007.713867 938.009827,1006.393250 940.038452,1005.068359 
	C940.038452,1005.068359 940.034912,1005.162048 940.567322,1004.961670 
	C940.765320,1004.648499 940.963318,1004.335388 941.801819,1003.773987 
	C946.061523,1000.838074 950.406433,998.017090 954.559082,994.936707 
	C959.653137,991.158142 964.586243,987.162781 969.246948,983.367981 
	C969.437561,982.910706 969.628174,982.453491 969.922180,982.024292 
	C969.922180,982.024292 969.950073,981.920837 970.345215,981.817871 
	C970.652893,981.708435 970.797058,981.490479 971.385986,981.039917 
	C971.619446,980.716919 971.852844,980.393921 972.703369,980.002136 
	C973.165283,979.711243 973.627258,979.420410 974.006042,979.057312 
	C974.006042,979.057312 974.061951,979.152222 974.585083,978.974976 
	C974.774353,978.670349 974.963562,978.365723 975.060730,978.060608 
	C975.060730,978.060608 975.061218,978.152588 975.583740,977.975769 
	C975.772888,977.671814 975.962036,977.367859 976.063232,977.063354 
z"/>
<path fill="#3368EC" opacity="1.000000" stroke="none" 
	d="
M1022.085144,904.082214 
	C1021.725281,905.467407 1021.365417,906.852661 1020.622070,908.717224 
	C1019.520874,911.171875 1018.803101,913.147095 1018.085327,915.122314 
	C1018.085266,915.122314 1018.081787,915.051392 1017.765991,914.923218 
	C1013.934021,922.024475 1010.417847,929.253784 1006.901733,936.483093 
	C1006.901672,936.483093 1006.886719,936.445557 1006.570801,936.632751 
	C1005.535400,938.585693 1004.816040,940.351501 1004.096680,942.117310 
	C1004.096680,942.117310 1004.070251,942.049866 1003.772461,941.871216 
	C1002.335571,943.841736 1001.196411,945.990845 1000.057251,948.139893 
	C1000.057251,948.139893 1000.054321,948.034912 999.742126,947.947876 
	C998.324524,949.940735 997.219116,952.020752 996.113708,954.100708 
	C996.113708,954.100708 996.083252,954.032959 995.734253,953.889404 
	C995.268921,954.217224 995.152588,954.688599 995.036255,955.159912 
	C995.036255,955.159912 995.037781,955.042786 994.747437,954.925964 
	C994.308167,955.235779 994.159180,955.662415 994.010132,956.089050 
	C994.010132,956.089050 993.806458,956.095642 994.167725,956.397034 
	C993.991089,956.754272 993.453247,956.810120 992.915405,956.865967 
	C992.915405,956.866028 993.095703,956.888306 992.719238,957.098450 
	C992.265930,957.907043 992.189026,958.505493 992.112122,959.103943 
	C992.112122,959.103943 992.083313,959.037415 991.744751,958.911560 
	C991.281250,959.242859 991.156250,959.700073 991.031250,960.157227 
	C991.031189,960.157227 991.028992,960.015198 990.689270,959.996826 
	C989.943970,961.014832 989.538391,962.051270 989.132812,963.087646 
	C989.132751,963.087646 989.036560,962.995056 988.696289,962.850708 
	C988.256775,963.188232 988.157532,963.670166 988.058350,964.152100 
	C988.058411,964.152100 988.058350,964.060059 987.721191,963.907837 
	C987.270935,964.222778 987.157837,964.689941 987.044739,965.157104 
	C987.044739,965.157104 987.044678,965.045410 986.725952,964.937500 
	C986.282654,965.272278 986.158020,965.714905 986.033386,966.157532 
	C986.033386,966.157532 986.033630,966.031433 985.732361,965.959839 
	C985.294800,966.311462 985.158508,966.734619 985.022217,967.157776 
	C985.022217,967.157776 985.024841,967.030212 984.718933,966.948303 
	C983.318848,968.607056 982.224670,970.347778 981.130615,972.088501 
	C981.130615,972.088501 981.046997,971.999756 980.701416,971.862244 
	C980.257019,972.200562 980.158142,972.676392 980.059326,973.152283 
	C980.059326,973.152283 980.059021,973.058960 979.708374,972.908691 
	C979.258423,973.223022 979.159119,973.687500 979.059814,974.152039 
	C979.059814,974.152039 979.059265,974.058960 978.707397,973.908691 
	C978.257446,974.222900 978.159302,974.687378 978.061157,975.151855 
	C978.061096,975.151855 978.060608,975.060120 977.705200,974.906616 
	C977.254578,975.218994 977.159302,975.684998 977.064087,976.150940 
	C977.064026,976.150940 977.063538,976.062988 976.706665,975.901611 
	C976.254395,976.210571 976.158936,976.680908 976.063599,977.151245 
	C976.063599,977.151245 976.063232,977.063354 975.709106,976.901001 
	C975.257080,977.209961 975.159180,977.681274 975.061218,978.152588 
	C975.061218,978.152588 975.060730,978.060608 974.707764,977.907043 
	C974.257202,978.219727 974.159546,978.685974 974.061890,979.152222 
	C974.061951,979.152222 974.006042,979.057312 973.823120,978.761353 
	C973.122253,979.000610 972.604309,979.535767 972.086304,980.070862 
	C971.852844,980.393921 971.619446,980.716919 971.185852,981.402283 
	C970.640503,981.816711 970.295288,981.868713 969.950073,981.920776 
	C969.950073,981.920837 969.922180,982.024292 969.974670,982.253662 
	C969.881042,982.742371 969.734985,983.001709 969.588867,983.260986 
	C964.586243,987.162781 959.653137,991.158142 954.559082,994.936707 
	C950.406433,998.017090 946.061523,1000.838074 941.124573,1003.892639 
	C940.309814,1004.394897 940.172363,1004.778442 940.034912,1005.162048 
	C940.034912,1005.162048 940.038452,1005.068359 939.743774,1004.871582 
	C937.312622,1006.168762 935.176147,1007.662720 933.039734,1009.156677 
	C933.039734,1009.156677 933.041748,1009.063599 932.735718,1008.877258 
	C931.954834,1009.186279 931.479980,1009.681580 931.005127,1010.176880 
	C931.005127,1010.176880 931.013733,1010.054321 930.732910,1009.888000 
	C928.631531,1010.846069 926.811035,1011.970459 924.990540,1013.094849 
	C924.990540,1013.094849 924.809509,1013.077332 925.083740,1013.304321 
	C924.903503,1013.582336 924.449158,1013.633484 923.994751,1013.684570 
	C913.630981,1017.796692 903.267151,1021.908875 892.099487,1025.907593 
	C881.013245,1027.789429 870.730835,1029.784668 860.448486,1031.779907 
	C860.252014,1031.850952 860.055481,1031.922119 859.070801,1031.920776 
	C853.853516,1032.232910 849.424561,1032.617676 844.531860,1032.944336 
	C743.005859,1032.897705 641.943359,1033.020874 540.881226,1032.871948 
	C491.782654,1032.799561 442.684784,1032.218262 393.586609,1031.867432 
	C389.951904,1031.582520 386.317200,1031.297485 382.104523,1030.677002 
	C372.527740,1027.621948 363.537476,1024.873535 354.523010,1022.206543 
	C352.684479,1021.662598 350.755249,1021.425293 348.867798,1021.046631 
	C348.867798,1021.046631 348.987488,1021.044739 349.007538,1020.737061 
	C343.641083,1018.300537 338.254608,1016.171692 332.868103,1014.042908 
	C332.868103,1014.042908 332.997864,1014.038513 332.986298,1013.744019 
	C329.957550,1011.990173 326.940338,1010.530762 323.923096,1009.071350 
	C318.428986,1005.733215 312.934875,1002.395081 306.743958,999.024292 
	C305.960022,998.853699 305.772949,998.683105 305.805298,998.584290 
	C305.885803,998.338745 306.066284,998.125977 306.206604,997.900024 
	C306.206635,997.900024 306.205444,998.102783 306.102722,997.743164 
	C303.960693,996.286804 301.921387,995.190125 299.882080,994.093384 
	C299.882080,994.093384 299.951080,994.086792 300.082062,993.751526 
	C299.756500,993.282471 299.299957,993.148682 298.843414,993.014893 
	C298.843414,993.014893 299.001160,993.014099 298.999329,992.694153 
	C297.962952,991.951782 296.928467,991.529419 295.893951,991.106995 
	C295.893951,991.106995 295.997559,991.000000 296.231567,990.774536 
	C294.276184,989.070557 292.086761,987.592041 289.897308,986.113525 
	C289.897308,986.113525 289.963989,986.086853 290.106384,985.726746 
	C289.779968,985.260498 289.311188,985.154419 288.842407,985.048279 
	C288.842407,985.048279 288.951385,985.048096 289.086487,984.714233 
	C288.760895,984.267639 288.300201,984.154907 287.839508,984.042236 
	C287.839508,984.042236 287.957489,984.042114 288.072845,983.716187 
	C287.738403,983.273132 287.288605,983.156006 286.838806,983.038879 
	C286.838806,983.038879 286.960999,983.038757 287.064575,982.725769 
	C286.724091,982.283813 286.279968,982.154907 285.835876,982.025940 
	C285.835876,982.025940 285.978485,982.025146 286.031860,981.719727 
	C285.643646,981.261292 285.202026,981.108215 284.760376,980.955200 
	C283.179962,979.447327 281.599548,977.939514 279.658722,976.379761 
	C278.934692,975.565186 278.571106,974.802368 278.207489,974.039612 
	C277.465363,973.521729 276.723206,973.003784 275.949951,972.195557 
	C275.918793,971.905212 276.072418,972.317871 276.072388,972.317871 
	C275.778534,972.123413 275.484680,971.928833 274.697144,971.260864 
	C273.874512,970.331421 273.545532,969.875427 273.216614,969.419434 
	C270.529755,966.179993 267.842865,962.940552 265.011536,959.031372 
	C262.873047,956.273865 260.878937,954.186035 258.884827,952.098206 
	C258.884857,952.098206 258.985535,952.020264 259.229309,951.769104 
	C258.593781,950.688171 257.714478,949.858398 256.835175,949.028625 
	C256.835175,949.028625 256.936340,949.032837 257.133911,948.750488 
	C255.836777,946.659058 254.342087,944.849915 252.847397,943.040833 
	C252.847382,943.040833 252.945068,943.041809 253.119141,942.733887 
	C252.476883,941.630493 251.660522,940.835022 250.844177,940.039551 
	C250.844193,940.039551 250.927795,940.042175 251.158875,939.758545 
	C249.206726,935.993652 247.023468,932.512390 244.840240,929.031128 
	C244.840240,929.031128 244.944763,929.033264 245.125534,928.729248 
	C244.812073,927.949829 244.317841,927.474426 243.823608,926.999084 
	C243.823593,926.999084 243.955307,927.006042 244.121918,926.712158 
	C243.800018,925.945740 243.311523,925.473206 242.823029,925.000610 
	C242.823029,925.000610 242.951660,925.008240 243.128296,924.712036 
	C240.551346,917.940552 237.797775,911.465210 235.020477,904.605164 
	C227.011475,881.518555 223.900986,858.099365 223.918472,834.082153 
	C224.019119,695.840881 223.834961,557.599243 224.047348,419.358215 
	C224.098389,386.149292 221.411789,352.703491 230.147186,319.704437 
	C230.135361,319.245239 230.050583,319.069519 229.965790,318.893768 
	C229.965790,318.893768 229.985413,319.043427 230.248993,318.901917 
	C232.660156,311.796173 234.807739,304.831909 236.955322,297.867645 
	C236.955307,297.867645 236.960220,297.986603 237.266037,298.008240 
	C239.368881,293.641968 241.165924,289.254089 242.962967,284.866211 
	C242.962967,284.866211 242.962677,284.986053 243.209473,285.017578 
	C243.629166,284.696259 243.802063,284.343384 244.172089,283.713715 
	C246.561325,278.914276 248.753418,274.391602 250.945526,269.868927 
	C250.945511,269.868927 250.946533,269.969727 251.245163,270.065582 
	C256.500977,263.353119 261.468414,256.552216 266.410156,249.732697 
	C268.297485,247.128235 270.126068,244.481216 271.981415,241.853577 
	C271.981415,241.853577 271.981873,241.986038 272.271667,242.051651 
	C274.328430,239.719589 276.095367,237.321915 277.862335,234.924240 
	C277.862335,234.924240 277.940796,235.020325 278.304443,235.162109 
	C278.759094,234.817307 278.850098,234.330719 278.941101,233.844147 
	C278.941101,233.844147 278.956299,233.911362 279.226929,234.233337 
	C280.291504,233.337570 281.085449,232.119843 281.879395,230.902100 
	C281.879395,230.902100 281.923767,230.978394 282.302948,231.156647 
	C282.766785,230.838715 282.851471,230.342529 282.936096,229.846344 
	C282.936096,229.846344 282.936646,229.937241 283.313721,230.136261 
	C283.771576,229.839706 283.852325,229.344101 283.933105,228.848511 
	C283.933105,228.848511 283.933655,228.934265 284.312256,229.145096 
	C284.771820,228.853317 284.852722,228.350708 284.933624,227.848099 
	C284.933624,227.848099 284.999237,227.980484 285.097809,228.325302 
	C289.102722,225.072739 293.009064,221.475342 296.915375,217.877945 
	C296.915375,217.877945 296.950409,217.950073 297.222900,218.187317 
	C298.974365,216.909058 300.453339,215.393585 301.932312,213.878113 
	C301.932312,213.878098 301.954224,213.946045 302.212189,214.207428 
	C310.594086,209.510147 318.726990,204.565933 326.821533,199.559753 
	C327.351166,199.232178 327.587341,198.430069 327.959991,197.848679 
	C327.959991,197.848679 327.959595,197.938477 328.263245,198.158920 
	C329.044464,197.859985 329.522034,197.340591 329.999603,196.821228 
	C329.999603,196.821228 329.992920,196.951004 330.284607,197.141083 
	C331.050629,196.827560 331.524963,196.323929 331.999268,195.820282 
	C331.999268,195.820282 331.991669,195.947739 332.279968,196.144806 
	C336.040253,194.505478 339.512207,192.669083 342.984192,190.832687 
	C342.984192,190.832687 342.980743,190.938553 343.251770,191.158051 
	C344.009918,191.198639 344.497101,191.019730 345.256714,190.802658 
	C345.694458,190.459854 345.859711,190.155197 346.024994,189.850555 
	C346.024994,189.850555 346.015167,189.988007 346.341644,190.082825 
	C351.116943,188.391907 355.565765,186.606155 360.014587,184.820389 
	C360.014587,184.820389 360.008728,184.962845 360.330963,185.128632 
	C371.777435,182.888580 382.901703,180.482758 394.477386,178.124481 
	C400.910004,177.781631 406.890625,177.062241 412.872437,177.052368 
	C465.198639,176.966095 517.525024,177.008636 569.851379,177.009064 
	C661.672729,177.009811 753.495850,176.720367 845.313538,177.301041 
	C859.942383,177.393539 874.804138,180.329773 889.105835,183.810287 
	C914.829651,190.070480 937.789062,202.509430 958.677490,218.762772 
	C959.561401,219.450592 960.928162,219.517853 962.070007,219.874207 
	C962.070007,219.874207 961.980347,219.939896 961.820068,220.307068 
	C962.156555,220.767288 962.653320,220.860352 963.150024,220.953400 
	C963.150024,220.953415 963.076782,220.996841 962.739136,221.161896 
	C965.289429,223.501999 968.177307,225.677048 971.065247,227.852112 
	C971.065247,227.852112 970.997559,227.986298 970.825439,228.324280 
	C971.154114,228.758194 971.654846,228.854111 972.155579,228.950043 
	C972.155579,228.950043 972.078552,228.992798 971.746094,229.161545 
	C973.658936,231.205048 975.904236,233.079803 978.149536,234.954544 
	C978.149536,234.954529 978.025085,234.957962 977.947083,235.282227 
	C978.301086,235.725510 978.733032,235.844543 979.165039,235.963562 
	C979.165039,235.963562 979.073303,235.961288 978.854492,236.225815 
	C981.786621,240.136215 984.871887,243.841980 988.117737,247.401382 
	C989.623901,249.053177 991.442261,250.420303 993.119080,251.916473 
	C993.119080,251.916489 993.039307,251.967911 992.786926,252.211273 
	C995.396545,255.949371 998.258484,259.444092 1001.120422,262.938812 
	C1001.120422,262.938812 1001.054565,262.950165 1000.793945,263.227570 
	C1002.053345,265.295929 1003.573425,267.086914 1005.093506,268.877869 
	C1005.093506,268.877869 1005.108398,268.899872 1004.744751,269.115448 
	C1009.010803,278.552277 1013.640503,287.773529 1018.346130,297.346375 
	C1021.682129,308.103638 1024.942261,318.509277 1028.197754,329.330383 
	C1029.541748,339.536591 1030.890503,349.327301 1032.228760,359.578766 
	C1032.413452,369.029602 1032.608643,378.019684 1032.689941,387.464508 
	C1032.507202,426.814728 1032.413330,465.710236 1032.386353,504.605774 
	C1032.379395,514.733521 1032.580688,524.861450 1032.558105,535.442749 
	C1032.476196,548.847839 1032.522705,561.799561 1032.412476,575.207520 
	C1032.365723,578.530090 1032.475708,581.396423 1032.545654,584.712585 
	C1032.593994,598.111877 1032.682251,611.061218 1032.650024,624.463867 
	C1032.473999,638.025024 1032.345703,651.133179 1032.381470,664.240906 
	C1032.426758,680.823120 1032.605591,697.404846 1032.600098,714.440857 
	C1032.504272,730.515015 1032.535034,746.135193 1032.421875,762.180664 
	C1032.368042,763.487061 1032.458374,764.368164 1032.511963,765.700439 
	C1032.561279,778.104370 1032.647339,790.057251 1032.613281,802.463501 
	C1032.421875,819.266602 1032.350708,835.616394 1032.151611,852.391479 
	C1031.815430,854.953857 1031.668701,857.099060 1031.387939,859.226562 
	C1030.291748,867.530518 1029.153076,875.828857 1028.030273,884.129333 
	C1028.030273,884.129333 1028.020142,883.966248 1027.783203,884.047729 
	C1027.402344,884.753479 1027.258423,885.377808 1026.962402,886.346436 
	C1025.235352,892.487854 1023.660278,898.285034 1022.085144,904.082214 
M530.399841,817.057129 
	C556.845642,830.406433 585.047302,836.878052 614.481384,838.516602 
	C648.595093,840.415710 682.216431,837.846558 714.191956,824.934204 
	C773.464111,800.999084 811.334900,758.681274 823.468811,694.990906 
	C824.974487,687.087708 825.517700,679.001160 826.536621,670.758972 
	C824.293701,670.553894 823.153687,670.357971 822.013855,670.358826 
	C789.848755,670.382751 757.683655,670.457153 725.518677,670.414978 
	C722.596313,670.411133 721.528931,671.363525 721.066772,674.286560 
	C718.276062,691.935059 711.998413,708.097534 699.291565,721.081482 
	C683.059448,737.667725 662.581909,743.588440 639.977600,744.535156 
	C595.791992,746.385620 564.242554,727.371521 547.864136,688.280518 
	C539.241516,667.700562 536.522034,645.920776 535.553406,623.853577 
	C534.214294,593.347046 535.942749,563.167114 547.016113,534.298828 
	C555.444336,512.326477 568.683838,494.250061 590.485535,483.572601 
	C607.318726,475.328491 625.128296,473.497589 643.549438,474.758148 
	C685.577271,477.634125 713.363281,502.545502 720.083801,543.820190 
	C720.756592,547.952332 722.383850,549.174927 726.548706,549.145813 
	C758.046021,548.925964 789.545105,548.965332 821.043640,548.903503 
	C822.485291,548.900635 823.926575,548.703125 825.877258,548.558594 
	C825.273865,541.887329 825.024231,535.573120 824.091675,529.361450 
	C813.653442,459.830139 774.844177,413.252228 709.158142,389.288818 
	C677.164246,377.616913 643.648438,376.340729 609.994507,378.661835 
	C579.332336,380.776611 550.295044,388.859497 523.580200,404.271881 
	C476.475311,431.447754 446.950562,472.261200 433.252625,524.345642 
	C419.458618,576.795166 419.115997,629.971130 430.671356,682.756592 
	C443.602783,741.828186 475.004120,788.135254 530.399841,817.057129 
z"/>
<path fill="#ECEFFA" opacity="1.000000" stroke="none" 
	d="
M961.938965,219.563995 
	C960.928162,219.517853 959.561401,219.450592 958.677490,218.762772 
	C937.789062,202.509430 914.829651,190.070480 889.105835,183.810287 
	C874.804138,180.329773 859.942383,177.393539 845.313538,177.301041 
	C753.495850,176.720367 661.672729,177.009811 569.851379,177.009064 
	C517.525024,177.008636 465.198639,176.966095 412.872437,177.052368 
	C406.890625,177.062241 400.910004,177.781631 394.469421,177.890869 
	C394.010010,177.609695 393.993439,177.142487 393.993439,177.142487 
	C399.446655,176.419647 404.899414,175.069534 410.353149,175.065460 
	C556.995239,174.956085 703.637573,174.907364 850.279297,175.170807 
	C859.697449,175.187744 869.318970,176.999756 878.477905,179.387955 
	C892.351318,183.005432 906.450684,186.651291 919.433105,192.537155 
	C932.211365,198.330490 943.746094,206.883682 955.756287,214.339035 
	C957.946472,215.698624 959.799316,217.601654 961.938965,219.563995 
z"/>
<path fill="#ECEFF9" opacity="1.000000" stroke="none" 
	d="
M230.074219,319.987885 
	C221.411789,352.703491 224.098389,386.149292 224.047348,419.358215 
	C223.834961,557.599243 224.019119,695.840881 223.918472,834.082153 
	C223.900986,858.099365 227.011475,881.518555 234.728134,904.629639 
	C234.264572,905.054382 234.069626,905.070007 233.874664,905.085571 
	C232.245804,899.964355 230.619949,894.842224 228.987595,889.722168 
	C223.665878,873.029541 222.961929,855.828430 222.968338,838.479797 
	C223.027802,677.331604 222.897614,516.183167 223.185501,355.035522 
	C223.206055,343.531281 224.481201,331.748932 229.315475,320.382263 
	C229.613831,319.991821 230.074219,319.987885 230.074219,319.987885 
z"/>
<path fill="#DFE3FF" opacity="1.000000" stroke="none" 
	d="
M393.819519,1032.230713 
	C442.684784,1032.218262 491.782654,1032.799561 540.881226,1032.871948 
	C641.943359,1033.020874 743.005859,1032.897705 844.530090,1033.156982 
	C844.991943,1033.427490 844.987183,1033.852661 844.987183,1033.852661 
	C804.668396,1033.908081 764.349670,1034.000977 724.030884,1034.011353 
	C616.395020,1034.039062 508.759125,1034.040649 401.123291,1033.977539 
	C398.766083,1033.976074 396.409363,1033.075195 393.819519,1032.230713 
z"/>
<path fill="#FCFAFB" opacity="1.000000" stroke="none" 
	d="
M1032.686279,534.989258 
	C1032.580688,524.861450 1032.379395,514.733521 1032.386353,504.605774 
	C1032.413330,465.710236 1032.507202,426.814728 1032.860596,387.458496 
	C1033.373047,386.995117 1033.601074,386.993286 1033.828979,386.992279 
	C1033.887939,426.215088 1033.950928,465.437927 1034.002930,504.660736 
	C1034.015991,514.467468 1033.993774,524.274170 1033.719849,534.543213 
	C1033.196533,535.006165 1032.941284,535.000732 1032.686279,534.989258 
z"/>
<path fill="#FCFAFB" opacity="1.000000" stroke="none" 
	d="
M1032.726807,713.986816 
	C1032.605591,697.404846 1032.426758,680.823120 1032.381470,664.240906 
	C1032.345703,651.133179 1032.473999,638.025024 1032.826660,624.457642 
	C1033.359253,623.995239 1033.594849,623.993347 1033.830566,623.992554 
	C1033.881836,653.688599 1033.933105,683.384644 1033.724121,713.542786 
	C1033.218018,714.004822 1032.972290,713.998779 1032.726807,713.986816 
z"/>
<path fill="#FCFAFB" opacity="1.000000" stroke="none" 
	d="
M1032.279541,851.966125 
	C1032.350708,835.616394 1032.421875,819.266602 1032.796143,802.457397 
	C1033.343750,801.995300 1033.587891,801.993530 1033.832153,801.992615 
	C1033.890137,817.653076 1033.958618,833.313477 1033.973145,848.973999 
	C1033.973877,849.705078 1033.494507,850.436584 1032.880859,851.536499 
	C1032.523193,851.904968 1032.279541,851.966125 1032.279541,851.966125 
z"/>
<path fill="#FDFDFE" opacity="1.000000" stroke="none" 
	d="
M1032.600098,714.440857 
	C1032.972290,713.998779 1033.218018,714.004822 1033.648315,714.006531 
	C1033.878784,729.678223 1033.924805,745.348328 1033.685913,761.417786 
	C1033.130005,761.696411 1032.851685,761.675781 1032.565918,761.755310 
	C1032.535034,746.135193 1032.504272,730.515015 1032.600098,714.440857 
z"/>
<path fill="#FDFDFE" opacity="1.000000" stroke="none" 
	d="
M1032.557983,535.442749 
	C1032.941284,535.000732 1033.196533,535.006165 1033.643555,535.006958 
	C1033.880371,548.011597 1033.925537,561.014893 1033.686279,574.417847 
	C1033.132202,574.696960 1032.854614,574.674866 1032.569214,574.751221 
	C1032.522705,561.799561 1032.476196,548.847839 1032.557983,535.442749 
z"/>
<path fill="#FDFDFE" opacity="1.000000" stroke="none" 
	d="
M1033.908691,623.530151 
	C1033.594849,623.993347 1033.359253,623.995239 1032.947021,624.004395 
	C1032.682251,611.061218 1032.593994,598.111877 1032.754639,584.729370 
	C1033.273804,584.225586 1033.543579,584.153076 1033.812744,584.078857 
	C1033.870728,597.075134 1033.928711,610.071411 1033.908691,623.530151 
z"/>
<path fill="#FDFDFE" opacity="1.000000" stroke="none" 
	d="
M1033.909302,801.530029 
	C1033.587891,801.993530 1033.343750,801.995300 1032.916504,802.004028 
	C1032.647339,790.057251 1032.561279,778.104370 1032.726562,765.720947 
	C1033.257446,765.222107 1033.535156,765.147461 1033.811035,765.066345 
	C1033.869507,777.066711 1033.927979,789.067078 1033.909302,801.530029 
z"/>
<path fill="#E9EFFB" opacity="1.000000" stroke="none" 
	d="
M271.624664,241.916016 
	C270.126068,244.481216 268.297485,247.128235 266.410156,249.732697 
	C261.468414,256.552216 256.500977,263.353119 251.194763,270.065796 
	C255.775360,259.269592 262.908630,250.176788 271.624664,241.916016 
z"/>
<path fill="#E9EFFB" opacity="1.000000" stroke="none" 
	d="
M1028.202393,328.914948 
	C1024.942261,318.509277 1021.682129,308.103638 1018.607056,297.346252 
	C1019.140015,296.997681 1019.487915,297.000824 1019.835876,297.003937 
	C1024.233765,306.969086 1028.202881,317.060272 1028.741821,328.496216 
	C1028.508057,328.901215 1028.202393,328.914948 1028.202393,328.914948 
z"/>
<path fill="#E9EFFB" opacity="1.000000" stroke="none" 
	d="
M393.550659,177.064026 
	C393.993439,177.142487 394.010010,177.609695 394.017975,177.843323 
	C382.901703,180.482758 371.777435,182.888580 360.259735,185.125610 
	C363.776367,183.555542 367.594269,181.740463 371.616852,180.844177 
	C378.714752,179.262680 385.937439,178.241379 393.550659,177.064026 
z"/>
<path fill="#E4EBFB" opacity="1.000000" stroke="none" 
	d="
M349.023102,1021.391479 
	C350.755249,1021.425293 352.684479,1021.662598 354.523010,1022.206543 
	C363.537476,1024.873535 372.527740,1027.621948 381.617188,1030.574707 
	C370.864655,1027.783936 360.021545,1024.760132 349.023102,1021.391479 
z"/>
<path fill="#ECEFFA" opacity="1.000000" stroke="none" 
	d="
M1019.798828,296.635254 
	C1019.487915,297.000824 1019.140015,296.997681 1018.531128,296.994659 
	C1013.640503,287.773529 1009.010803,278.552277 1004.755859,269.122803 
	C1008.394287,274.462006 1011.787109,279.938782 1014.873657,285.583099 
	C1016.747803,289.010406 1018.148438,292.696625 1019.798828,296.635254 
z"/>
<path fill="#B3C8F3" opacity="1.000000" stroke="none" 
	d="
M1028.197754,329.330383 
	C1028.202393,328.914948 1028.508057,328.901215 1028.660278,328.915802 
	C1029.902954,332.213562 1031.567139,335.429688 1031.960571,338.794403 
	C1032.704224,345.153564 1032.717529,351.598114 1032.861328,358.571014 
	C1032.688232,359.134827 1032.239136,359.118042 1032.239136,359.118042 
	C1030.890503,349.327301 1029.541748,339.536591 1028.197754,329.330383 
z"/>
<path fill="#E9EFFB" opacity="1.000000" stroke="none" 
	d="
M327.582092,197.914551 
	C327.587341,198.430069 327.351166,199.232178 326.821533,199.559753 
	C318.726990,204.565933 310.594086,209.510147 302.179077,214.194061 
	C310.326752,208.606354 318.765472,203.293396 327.582092,197.914551 
z"/>
<path fill="#E9EFFB" opacity="1.000000" stroke="none" 
	d="
M1032.151611,852.391479 
	C1032.279541,851.966125 1032.523193,851.904968 1032.648682,851.897095 
	C1032.187744,860.466980 1031.718750,869.055481 1030.931396,877.614685 
	C1030.737549,879.721863 1029.506348,881.733582 1028.391113,883.959229 
	C1029.153076,875.828857 1030.291748,867.530518 1031.387939,859.226562 
	C1031.668701,857.099060 1031.815430,854.953857 1032.151611,852.391479 
z"/>
<path fill="#FDFDFE" opacity="1.000000" stroke="none" 
	d="
M1032.228760,359.578766 
	C1032.239136,359.118042 1032.688232,359.134827 1032.888184,359.032867 
	C1033.393188,361.899719 1033.896118,364.864166 1033.961548,367.838257 
	C1034.095093,373.912109 1033.993042,379.991150 1033.908447,386.530151 
	C1033.601074,386.993286 1033.373047,386.995117 1032.974365,387.003784 
	C1032.608643,378.019684 1032.413452,369.029602 1032.228760,359.578766 
z"/>
<path fill="#D4E1F9" opacity="1.000000" stroke="none" 
	d="
M860.869751,1031.816650 
	C870.730835,1029.784668 881.013245,1027.789429 891.704590,1025.921631 
	C888.802429,1027.367065 885.592224,1029.331299 882.159119,1029.866821 
	C875.267456,1030.941895 868.254150,1031.236694 860.869751,1031.816650 
z"/>
<path fill="#ECEFFA" opacity="1.000000" stroke="none" 
	d="
M993.072021,251.558044 
	C991.442261,250.420303 989.623901,249.053177 988.117737,247.401382 
	C984.871887,243.841980 981.786621,240.136215 978.855957,236.179932 
	C983.725891,240.979553 988.375427,246.089584 993.072021,251.558044 
z"/>
<path fill="#E4EBFB" opacity="1.000000" stroke="none" 
	d="
M1007.232422,936.260376 
	C1010.417847,929.253784 1013.934021,922.024475 1017.801514,914.922058 
	C1014.622925,922.045227 1011.093079,929.041443 1007.232422,936.260376 
z"/>
<path fill="#E4EBFB" opacity="1.000000" stroke="none" 
	d="
M233.921219,905.463989 
	C234.069626,905.070007 234.264572,905.054382 234.751862,905.014404 
	C237.797775,911.465210 240.551346,917.940552 243.124268,924.776306 
	C240.958664,921.378845 238.855896,917.676941 237.030045,913.843262 
	C235.806015,911.273132 234.974762,908.515930 233.921219,905.463989 
z"/>
<path fill="#DCE6F8" opacity="1.000000" stroke="none" 
	d="
M236.616730,298.020111 
	C234.807739,304.831909 232.660156,311.796173 230.174179,318.911804 
	C231.983231,312.099670 234.130676,305.136139 236.616730,298.020111 
z"/>
<path fill="#ECEFFA" opacity="1.000000" stroke="none" 
	d="
M1022.432251,903.939758 
	C1023.660278,898.285034 1025.235352,892.487854 1027.141479,886.346191 
	C1027.472534,886.001770 1027.830566,886.000427 1027.830566,886.000427 
	C1026.146851,891.932739 1024.463135,897.865051 1022.432251,903.939758 
z"/>
<path fill="#E9EFFB" opacity="1.000000" stroke="none" 
	d="
M296.561127,217.923660 
	C293.009064,221.475342 289.102722,225.072739 285.071045,228.256073 
	C288.699432,224.551147 292.453156,221.260254 296.561127,217.923660 
z"/>
<path fill="#E9EFFB" opacity="1.000000" stroke="none" 
	d="
M250.618103,270.002747 
	C248.753418,274.391602 246.561325,278.914276 243.968933,283.714844 
	C243.568634,283.992798 243.162216,283.993927 243.162231,283.993927 
	C245.538376,279.374817 247.914520,274.755676 250.618103,270.002747 
z"/>
<path fill="#DCE6F8" opacity="1.000000" stroke="none" 
	d="
M333.011444,1014.383057 
	C338.254608,1016.171692 343.641083,1018.300537 349.008301,1020.796875 
	C343.710968,1019.017334 338.432892,1016.870300 333.011444,1014.383057 
z"/>
<path fill="#DCE6F8" opacity="1.000000" stroke="none" 
	d="
M359.598297,184.902374 
	C355.565765,186.606155 351.116943,188.391907 346.272919,190.077988 
	C350.312469,188.313660 354.747253,186.649002 359.598297,184.902374 
z"/>
<path fill="#D4E1F9" opacity="1.000000" stroke="none" 
	d="
M845.442261,1033.934570 
	C844.987183,1033.852661 844.991943,1033.427490 844.993774,1033.214844 
	C849.424561,1032.617676 853.853516,1032.232910 858.758301,1031.895630 
	C855.290039,1035.860352 850.347778,1033.356812 845.442261,1033.934570 
z"/>
<path fill="#ECEFFA" opacity="1.000000" stroke="none" 
	d="
M1001.068970,262.576721 
	C998.258484,259.444092 995.396545,255.949371 992.812439,252.171295 
	C995.732727,255.330170 998.375122,258.772400 1001.068970,262.576721 
z"/>
<path fill="#DCE6F8" opacity="1.000000" stroke="none" 
	d="
M242.623260,284.996704 
	C241.165924,289.254089 239.368881,293.641968 237.206543,298.010498 
	C238.655350,293.703156 240.469452,289.415192 242.623260,284.996704 
z"/>
<path fill="#E4EBFB" opacity="1.000000" stroke="none" 
	d="
M244.904724,929.411438 
	C247.023468,932.512390 249.206726,935.993652 251.157227,939.800293 
	C248.939377,936.681091 246.954300,933.236389 244.904724,929.411438 
z"/>
<path fill="#E9EFFB" opacity="1.000000" stroke="none" 
	d="
M342.594666,190.912445 
	C339.512207,192.669083 336.040253,194.505478 332.216248,196.140778 
	C335.311188,194.290512 338.758148,192.641342 342.594666,190.912445 
z"/>
<path fill="#ECEFFA" opacity="1.000000" stroke="none" 
	d="
M970.943115,227.546936 
	C968.177307,225.677048 965.289429,223.501999 962.759155,221.124329 
	C965.684875,223.028397 968.252930,225.135071 970.943115,227.546936 
z"/>
<path fill="#E9EFFB" opacity="1.000000" stroke="none" 
	d="
M277.511780,234.948975 
	C276.095367,237.321915 274.328430,239.719589 272.205444,242.051758 
	C273.620026,239.648758 275.390656,237.311234 277.511780,234.948975 
z"/>
<path fill="#B3C8F3" opacity="1.000000" stroke="none" 
	d="
M1033.879150,583.624634 
	C1033.543579,584.153076 1033.273804,584.225586 1032.794678,584.279541 
	C1032.475708,581.396423 1032.365723,578.530090 1032.412476,575.207520 
	C1032.854614,574.674866 1033.132202,574.696960 1033.605469,574.876221 
	C1033.854492,577.680115 1033.900024,580.425232 1033.879150,583.624634 
z"/>
<path fill="#E4EBFB" opacity="1.000000" stroke="none" 
	d="
M258.924988,952.455017 
	C260.878937,954.186035 262.873047,956.273865 264.882019,958.710083 
	C262.919647,956.976196 260.942413,954.893982 258.924988,952.455017 
z"/>
<path fill="#DCE6F8" opacity="1.000000" stroke="none" 
	d="
M324.045532,1009.402161 
	C326.940338,1010.530762 329.957550,1011.990173 332.988312,1013.808960 
	C330.057251,1012.689880 327.112610,1011.211426 324.045532,1009.402161 
z"/>
<path fill="#ECEFFA" opacity="1.000000" stroke="none" 
	d="
M978.088867,234.605240 
	C975.904236,233.079803 973.658936,231.205048 971.768555,229.123642 
	C974.091736,230.696625 976.059998,232.476273 978.088867,234.605240 
z"/>
<path fill="#E4EBFB" opacity="1.000000" stroke="none" 
	d="
M290.022400,986.423157 
	C292.086761,987.592041 294.276184,989.070557 296.182129,990.829956 
	C293.981628,989.651428 292.064575,988.192078 290.022400,986.423157 
z"/>
<path fill="#DCE6F8" opacity="1.000000" stroke="none" 
	d="
M933.402588,1009.095581 
	C935.176147,1007.662720 937.312622,1006.168762 939.790527,1004.873657 
	C938.009827,1006.393250 935.887634,1007.713867 933.402588,1009.095581 
z"/>
<path fill="#E4EBFB" opacity="1.000000" stroke="none" 
	d="
M252.907043,943.401733 
	C254.342087,944.849915 255.836777,946.659058 257.131409,948.801147 
	C255.609833,947.343567 254.288269,945.553101 252.907043,943.401733 
z"/>
<path fill="#E4EBFB" opacity="1.000000" stroke="none" 
	d="
M996.430908,953.969666 
	C997.219116,952.020752 998.324524,949.940735 999.794617,947.946655 
	C999.022217,949.967957 997.885193,951.903259 996.430908,953.969666 
z"/>
<path fill="#E4EBFB" opacity="1.000000" stroke="none" 
	d="
M1000.379761,948.008179 
	C1001.196411,945.990845 1002.335571,943.841736 1003.807007,941.882141 
	C1002.993652,944.006592 1001.847961,945.941528 1000.379761,948.008179 
z"/>
<path fill="#E4EBFB" opacity="1.000000" stroke="none" 
	d="
M300.014954,994.412842 
	C301.921387,995.190125 303.960693,996.286804 306.001343,997.743530 
	C304.051056,996.979797 302.099426,995.856018 300.014954,994.412842 
z"/>
<path fill="#ECEFFA" opacity="1.000000" stroke="none" 
	d="
M1005.060059,268.527527 
	C1003.573425,267.086914 1002.053345,265.295929 1000.802368,263.195190 
	C1002.389832,264.649353 1003.708191,266.413269 1005.060059,268.527527 
z"/>
<path fill="#E4EBFB" opacity="1.000000" stroke="none" 
	d="
M1018.403442,914.981873 
	C1018.803101,913.147095 1019.520874,911.171875 1020.532959,909.151611 
	C1020.125427,911.018188 1019.423462,912.929810 1018.403442,914.981873 
z"/>
<path fill="#E9EFFB" opacity="1.000000" stroke="none" 
	d="
M301.572815,213.929733 
	C300.453339,215.393585 298.974365,216.909058 297.186829,218.169769 
	C298.323334,216.603760 299.768341,215.292557 301.572815,213.929733 
z"/>
<path fill="#DCE6F8" opacity="1.000000" stroke="none" 
	d="
M981.441528,971.967163 
	C982.224670,970.347778 983.318848,968.607056 984.782715,966.949829 
	C984.019104,968.637451 982.885803,970.241638 981.441528,971.967163 
z"/>
<path fill="#DCE6F8" opacity="1.000000" stroke="none" 
	d="
M925.364563,1013.050232 
	C926.811035,1011.970459 928.631531,1010.846069 930.794128,1009.892517 
	C929.336975,1011.044128 927.537781,1012.024902 925.364563,1013.050232 
z"/>
<path fill="#E4EBFB" opacity="1.000000" stroke="none" 
	d="
M1004.433960,941.966919 
	C1004.816040,940.351501 1005.535400,938.585693 1006.588074,936.622314 
	C1006.204651,938.221985 1005.487976,940.019287 1004.433960,941.966919 
z"/>
<path fill="#E9EFFB" opacity="1.000000" stroke="none" 
	d="
M281.532715,230.936432 
	C281.085449,232.119843 280.291504,233.337570 279.193726,234.224060 
	C279.655304,232.918793 280.420654,231.944778 281.532715,230.936432 
z"/>
<path fill="#B3C8F3" opacity="1.000000" stroke="none" 
	d="
M1033.878906,764.677856 
	C1033.535156,765.147461 1033.257446,765.222107 1032.763428,765.269775 
	C1032.458374,764.368164 1032.368042,763.487061 1032.421875,762.180664 
	C1032.851685,761.675781 1033.130005,761.696411 1033.605225,761.876099 
	C1033.855347,762.719788 1033.901123,763.504578 1033.878906,764.677856 
z"/>
<path fill="#E4EBFB" opacity="1.000000" stroke="none" 
	d="
M296.018555,991.417053 
	C296.928467,991.529419 297.962952,991.951782 298.999573,992.773010 
	C298.048798,992.690247 297.095978,992.208679 296.018555,991.417053 
z"/>
<path fill="#DCE6F8" opacity="1.000000" stroke="none" 
	d="
M989.441162,962.968140 
	C989.538391,962.051270 989.943970,961.014832 990.760254,959.995972 
	C990.697205,960.958557 990.223328,961.903564 989.441162,962.968140 
z"/>
<path fill="#E4EBFB" opacity="1.000000" stroke="none" 
	d="
M250.907410,940.371704 
	C251.660522,940.835022 252.476883,941.630493 253.118317,942.782715 
	C252.285828,942.327576 251.628235,941.515686 250.907410,940.371704 
z"/>
<path fill="#E4EBFB" opacity="1.000000" stroke="none" 
	d="
M256.901398,949.357300 
	C257.714478,949.858398 258.593781,950.688171 259.187256,951.816895 
	C258.256805,951.305908 257.612213,950.495911 256.901398,949.357300 
z"/>
<path fill="#DCE6F8" opacity="1.000000" stroke="none" 
	d="
M969.417908,983.314453 
	C969.734985,983.001709 969.881042,982.742371 969.922974,982.239624 
	C969.628174,982.453491 969.437561,982.910706 969.417908,983.314453 
z"/>
<path fill="#E4EBFB" opacity="1.000000" stroke="none" 
	d="
M273.328125,969.594727 
	C273.545532,969.875427 273.874512,970.331421 274.411896,970.815796 
	C274.226746,970.486206 273.833191,970.128113 273.328125,969.594727 
z"/>
<path fill="#E4EBFB" opacity="1.000000" stroke="none" 
	d="
M278.267242,974.299683 
	C278.571106,974.802368 278.934692,975.565186 279.625244,976.040344 
	C279.410461,975.355103 278.868744,974.957458 278.267242,974.299683 
z"/>
<path fill="#DCE6F8" opacity="1.000000" stroke="none" 
	d="
M972.394836,980.036499 
	C972.604309,979.535767 973.122253,979.000610 973.864685,978.797485 
	C973.627258,979.420410 973.165283,979.711243 972.394836,980.036499 
z"/>
<path fill="#DCE6F8" opacity="1.000000" stroke="none" 
	d="
M992.405823,958.991455 
	C992.189026,958.505493 992.265930,957.907043 992.708740,957.188721 
	C992.949646,957.672241 992.824585,958.275635 992.405823,958.991455 
z"/>
<path fill="#E4EBFB" opacity="1.000000" stroke="none" 
	d="
M243.900482,927.322998 
	C244.317841,927.474426 244.812073,927.949829 245.124176,928.781494 
	C244.620499,928.640747 244.298935,928.143799 243.900482,927.322998 
z"/>
<path fill="#E4EBFB" opacity="1.000000" stroke="none" 
	d="
M242.899109,925.325073 
	C243.311523,925.473206 243.800018,925.945740 244.118225,926.778015 
	C243.623688,926.641724 243.299438,926.145691 242.899109,925.325073 
z"/>
<path fill="#E9EFFB" opacity="1.000000" stroke="none" 
	d="
M1027.897705,885.658630 
	C1027.830566,886.000427 1027.472534,886.001770 1027.293457,886.001953 
	C1027.258423,885.377808 1027.402344,884.753479 1027.864746,884.042419 
	C1028.110474,884.409424 1028.037720,884.863098 1027.897705,885.658630 
z"/>
<path fill="#DCE6F8" opacity="1.000000" stroke="none" 
	d="
M931.329346,1010.105591 
	C931.479980,1009.681580 931.954834,1009.186279 932.782227,1008.878662 
	C932.641052,1009.388977 932.147278,1009.711609 931.329346,1010.105591 
z"/>
<path fill="#E9EFFB" opacity="1.000000" stroke="none" 
	d="
M329.678253,196.900757 
	C329.522034,197.340591 329.044464,197.859985 328.218353,198.158386 
	C328.365479,197.618362 328.861206,197.299316 329.678253,196.900757 
z"/>
<path fill="#E9EFFB" opacity="1.000000" stroke="none" 
	d="
M331.676636,195.899231 
	C331.524963,196.323929 331.050629,196.827560 330.219727,197.137543 
	C330.360107,196.622009 330.857025,196.300079 331.676636,195.899231 
z"/>
<path fill="#E9EFFB" opacity="1.000000" stroke="none" 
	d="
M344.984253,190.840820 
	C344.497101,191.019730 344.009918,191.198639 343.198822,191.156036 
	C343.365997,190.627258 343.857147,190.319977 344.662994,190.263718 
	C344.977722,190.514725 344.984253,190.840820 344.984253,190.840820 
z"/>
<path fill="#DCE6F8" opacity="1.000000" stroke="none" 
	d="
M987.309570,965.068970 
	C987.157837,964.689941 987.270935,964.222778 987.767212,963.908203 
	C987.958435,964.367493 987.766418,964.674133 987.309570,965.068970 
z"/>
<path fill="#E4EBFB" opacity="1.000000" stroke="none" 
	d="
M306.145264,998.104370 
	C306.066284,998.125977 305.885803,998.338745 305.805298,998.584290 
	C305.772949,998.683105 305.960022,998.853699 306.411499,998.869995 
	C306.424622,998.790039 306.194000,998.643494 306.145264,998.104370 
z"/>
<path fill="#E4EBFB" opacity="1.000000" stroke="none" 
	d="
M284.879395,981.234253 
	C285.202026,981.108215 285.643646,981.261292 286.032104,981.791077 
	C285.652069,981.949585 285.325226,981.731445 284.879395,981.234253 
z"/>
<path fill="#DCE6F8" opacity="1.000000" stroke="none" 
	d="
M970.147644,981.869324 
	C970.295288,981.868713 970.640503,981.816711 970.881714,981.464294 
	C970.797058,981.490479 970.652893,981.708435 970.147644,981.869324 
z"/>
<path fill="#E4EBFB" opacity="1.000000" stroke="none" 
	d="
M285.929565,982.295288 
	C286.279968,982.154907 286.724091,982.283813 287.064392,982.786865 
	C286.648163,982.962158 286.335693,982.763367 285.929565,982.295288 
z"/>
<path fill="#DCE6F8" opacity="1.000000" stroke="none" 
	d="
M345.256714,190.802658 
	C344.984253,190.840820 344.977722,190.514725 344.979553,190.351654 
	C345.156311,190.135757 345.331238,190.082916 345.765564,189.940308 
	C345.859711,190.155197 345.694458,190.459854 345.256714,190.802658 
z"/>
<path fill="#E4EBFB" opacity="1.000000" stroke="none" 
	d="
M286.932800,983.305176 
	C287.288605,983.156006 287.738403,983.273132 288.072632,983.775208 
	C287.647003,983.963867 287.336914,983.767639 286.932800,983.305176 
z"/>
<path fill="#E4EBFB" opacity="1.000000" stroke="none" 
	d="
M287.933044,984.306885 
	C288.300201,984.154907 288.760895,984.267639 289.086243,984.768677 
	C288.642792,984.961853 288.334686,984.766724 287.933044,984.306885 
z"/>
<path fill="#E4EBFB" opacity="1.000000" stroke="none" 
	d="
M288.935059,985.311035 
	C289.311188,985.154419 289.779968,985.260498 290.096863,985.761353 
	C289.639252,985.962036 289.333496,985.767944 288.935059,985.311035 
z"/>
<path fill="#DCE6F8" opacity="1.000000" stroke="none" 
	d="
M924.252930,1013.723206 
	C924.449158,1013.633484 924.903503,1013.582336 925.091553,1013.213684 
	C924.958862,1013.268799 924.854187,1013.557312 924.252930,1013.723206 
z"/>
<path fill="#E4EBFB" opacity="1.000000" stroke="none" 
	d="
M298.931335,993.285645 
	C299.299957,993.148682 299.756500,993.282471 300.082031,993.786133 
	C299.640411,993.956177 299.329803,993.756287 298.931335,993.285645 
z"/>
<path fill="#DCE6F8" opacity="1.000000" stroke="none" 
	d="
M940.301147,1005.061890 
	C940.172363,1004.778442 940.309814,1004.394897 940.804321,1004.016785 
	C940.963318,1004.335388 940.765320,1004.648499 940.301147,1005.061890 
z"/>
<path fill="#DCE6F8" opacity="1.000000" stroke="none" 
	d="
M993.164734,956.813965 
	C993.453247,956.810120 993.991089,956.754272 994.163513,956.295288 
	C993.670105,956.182068 993.542053,956.472046 993.164734,956.813965 
z"/>
<path fill="#DCE6F8" opacity="1.000000" stroke="none" 
	d="
M230.147186,319.704437 
	C230.074219,319.987885 229.613831,319.991821 229.383575,319.988586 
	C229.246719,319.670135 229.340118,319.354919 229.699646,318.966736 
	C230.050583,319.069519 230.135361,319.245239 230.147186,319.704437 
z"/>
<path fill="#DCE6F8" opacity="1.000000" stroke="none" 
	d="
M243.085449,284.242798 
	C243.162216,283.993927 243.568634,283.992798 243.771790,283.991638 
	C243.802063,284.343384 243.629166,284.696259 243.149551,285.017273 
	C242.898117,284.820801 242.953384,284.656219 243.085449,284.242798 
z"/>
<path fill="#ECEFFA" opacity="1.000000" stroke="none" 
	d="
M979.065308,235.696045 
	C978.733032,235.844543 978.301086,235.725510 977.945557,235.219971 
	C978.336548,235.031830 978.651062,235.230194 979.065308,235.696045 
z"/>
<path fill="#E9EFFB" opacity="1.000000" stroke="none" 
	d="
M278.682434,233.939209 
	C278.850098,234.330719 278.759094,234.817307 278.256042,235.122528 
	C278.037262,234.638901 278.230530,234.336594 278.682434,233.939209 
z"/>
<path fill="#E9EFFB" opacity="1.000000" stroke="none" 
	d="
M282.679077,229.940765 
	C282.851471,230.342529 282.766785,230.838715 282.264099,231.135712 
	C282.038055,230.636093 282.230072,230.335632 282.679077,229.940765 
z"/>
<path fill="#E9EFFB" opacity="1.000000" stroke="none" 
	d="
M283.676514,228.942520 
	C283.852325,229.344101 283.771576,229.839706 283.268280,230.136108 
	C283.037140,229.636780 283.228546,229.336655 283.676514,228.942520 
z"/>
<path fill="#ECEFFA" opacity="1.000000" stroke="none" 
	d="
M972.062012,228.690598 
	C971.654846,228.854111 971.154114,228.758194 970.858826,228.254639 
	C971.365601,228.041748 971.666992,228.236450 972.062012,228.690598 
z"/>
<path fill="#E9EFFB" opacity="1.000000" stroke="none" 
	d="
M284.677429,227.941879 
	C284.852722,228.350708 284.771820,228.853317 284.269379,229.144928 
	C284.039001,228.634491 284.230103,228.335083 284.677429,227.941879 
z"/>
<path fill="#ECEFFA" opacity="1.000000" stroke="none" 
	d="
M963.052185,220.696213 
	C962.653320,220.860352 962.156555,220.767288 961.855835,220.264099 
	C962.352661,220.048981 962.653503,220.244003 963.052185,220.696213 
z"/>
<path fill="#E4EBFB" opacity="1.000000" stroke="none" 
	d="
M995.301147,955.068237 
	C995.152588,954.688599 995.268921,954.217224 995.769531,953.901001 
	C995.957947,954.362854 995.762024,954.669678 995.301147,955.068237 
z"/>
<path fill="#E4EBFB" opacity="1.000000" stroke="none" 
	d="
M994.284790,956.027161 
	C994.159180,955.662415 994.308167,955.235779 994.806030,954.926941 
	C994.956360,955.351624 994.757874,955.658447 994.284790,956.027161 
z"/>
<path fill="#DCE6F8" opacity="1.000000" stroke="none" 
	d="
M974.323486,979.063599 
	C974.159546,978.685974 974.257202,978.219727 974.753784,977.907349 
	C974.963562,978.365723 974.774353,978.670349 974.323486,979.063599 
z"/>
<path fill="#DCE6F8" opacity="1.000000" stroke="none" 
	d="
M991.299561,960.070557 
	C991.156250,959.700073 991.281250,959.242859 991.779663,958.921143 
	C991.958069,959.365723 991.763000,959.674805 991.299561,960.070557 
z"/>
<path fill="#DCE6F8" opacity="1.000000" stroke="none" 
	d="
M988.319336,964.064941 
	C988.157532,963.670166 988.256775,963.188232 988.751953,962.888062 
	C988.958679,963.372375 988.769531,963.675049 988.319336,964.064941 
z"/>
<path fill="#DCE6F8" opacity="1.000000" stroke="none" 
	d="
M986.302856,966.069336 
	C986.158020,965.714905 986.282654,965.272278 986.781860,964.937805 
	C986.961731,965.357727 986.766968,965.669434 986.302856,966.069336 
z"/>
<path fill="#DCE6F8" opacity="1.000000" stroke="none" 
	d="
M985.292908,967.065674 
	C985.158508,966.734619 985.294800,966.311462 985.795410,965.960205 
	C985.960999,966.345947 985.762329,966.659790 985.292908,967.065674 
z"/>
<path fill="#E4EBFB" opacity="1.000000" stroke="none" 
	d="
M275.884094,972.388611 
	C276.072418,972.317871 275.918793,971.905212 275.792786,971.878540 
	C275.666779,971.851929 275.456451,972.161438 275.456451,972.161438 
	C275.456451,972.161438 275.695801,972.459351 275.884094,972.388611 
z"/>
<path fill="#DCE6F8" opacity="1.000000" stroke="none" 
	d="
M980.320679,973.064453 
	C980.158142,972.676392 980.257019,972.200562 980.752686,971.895447 
	C980.960388,972.369690 980.771179,972.673157 980.320679,973.064453 
z"/>
<path fill="#DCE6F8" opacity="1.000000" stroke="none" 
	d="
M979.322144,974.063599 
	C979.159119,973.687500 979.258423,973.223022 979.755005,972.908936 
	C979.963013,973.364685 979.773682,973.669983 979.322144,974.063599 
z"/>
<path fill="#DCE6F8" opacity="1.000000" stroke="none" 
	d="
M978.323120,975.063354 
	C978.159302,974.687378 978.257446,974.222900 978.754028,973.908875 
	C978.963257,974.364502 978.774109,974.669617 978.323120,975.063354 
z"/>
<path fill="#DCE6F8" opacity="1.000000" stroke="none" 
	d="
M977.325317,976.062439 
	C977.159302,975.684998 977.254578,975.218994 977.751099,974.906738 
	C977.963745,975.364929 977.775146,975.669434 977.325317,976.062439 
z"/>
<path fill="#DCE6F8" opacity="1.000000" stroke="none" 
	d="
M976.324463,977.062988 
	C976.158936,976.680908 976.254395,976.210571 976.750671,975.901733 
	C976.962830,976.367126 976.774170,976.670898 976.324463,977.062988 
z"/>
<path fill="#DCE6F8" opacity="1.000000" stroke="none" 
	d="
M975.322510,978.064209 
	C975.159180,977.681274 975.257080,977.209961 975.753113,976.901245 
	C975.962036,977.367859 975.772888,977.671814 975.322510,978.064209 
z"/>
<path fill="#FDFDFE" opacity="1.000000" stroke="none" 
	d="
M530.057495,816.911987 
	C475.004120,788.135254 443.602783,741.828186 430.671356,682.756592 
	C419.115997,629.971130 419.458618,576.795166 433.252625,524.345642 
	C446.950562,472.261200 476.475311,431.447754 523.580200,404.271881 
	C550.295044,388.859497 579.332336,380.776611 609.994507,378.661835 
	C643.648438,376.340729 677.164246,377.616913 709.158142,389.288818 
	C774.844177,413.252228 813.653442,459.830139 824.091675,529.361450 
	C825.024231,535.573120 825.273865,541.887329 825.877258,548.558594 
	C823.926575,548.703125 822.485291,548.900635 821.043640,548.903503 
	C789.545105,548.965332 758.046021,548.925964 726.548706,549.145813 
	C722.383850,549.174927 720.756592,547.952332 720.083801,543.820190 
	C713.363281,502.545502 685.577271,477.634125 643.549438,474.758148 
	C625.128296,473.497589 607.318726,475.328491 590.485535,483.572601 
	C568.683838,494.250061 555.444336,512.326477 547.016113,534.298828 
	C535.942749,563.167114 534.214294,593.347046 535.553406,623.853577 
	C536.522034,645.920776 539.241516,667.700562 547.864136,688.280518 
	C564.242554,727.371521 595.791992,746.385620 639.977600,744.535156 
	C662.581909,743.588440 683.059448,737.667725 699.291565,721.081482 
	C711.998413,708.097534 718.276062,691.935059 721.066772,674.286560 
	C721.528931,671.363525 722.596313,670.411133 725.518677,670.414978 
	C757.683655,670.457153 789.848755,670.382751 822.013855,670.358826 
	C823.153687,670.357971 824.293701,670.553894 826.536621,670.758972 
	C825.517700,679.001160 824.974487,687.087708 823.468811,694.990906 
	C811.334900,758.681274 773.464111,800.999084 714.191956,824.934204 
	C682.216431,837.846558 648.595093,840.415710 614.481384,838.516602 
	C585.047302,836.878052 556.845642,830.406433 530.057495,816.911987 
z"/>
</svg>